<svg id="Calque_1" data-name="Calque 1" xmlns="http://www.w3.org/2000/svg" viewBox="0 0 464.64 245.63"><defs><style>.cls-1{stroke:#000;stroke-miterlimit:10;stroke-width:6px;}</style></defs><title>Logo_papier2</title><path class="cls-1" d="M474.55,150.41c-1.93,4.72-5.38,8.2-9.24,11.34A62.38,62.38,0,0,1,453,169.28c-3.48,1.69-7.1,3.13-10.73,4.47-4.58,1.68-9.21,3.26-13.88,4.7-3.58,1.1-7.24,1.93-10.88,2.83-4,1-8.09,1.94-12.14,2.9-1.35.32-2.69.68-4.06.93-6.66,1.2-13.31,2.48-20,3.52-8.23,1.28-16.47,2.46-24.74,3.46-10.09,1.23-20.2,2.26-30.32,3.31-5.76.59-21.6,2-27.38,2.49-.4,0-.81,0-1.22.05-.91,0-1.35-.33-1.21-1.35.17-1.17.21-2.36.27-3.54a1.07,1.07,0,0,1,1.13-1.15c8.75-.8,27.56-2.44,36.3-3.38,8-.86,16-2,24.06-2.94,2.72-.33,5.44-.58,8.14-1q9.69-1.5,19.34-3.13c4.87-.82,9.74-1.64,14.58-2.62s9.39-2.09,14.07-3.2c3.45-.81,6.9-1.65,10.31-2.61s6.55-2,9.8-3.07c2.56-.84,5.11-1.7,7.6-2.7a90.24,90.24,0,0,0,14.6-7.09,40.83,40.83,0,0,0,8.26-6.47c3.07-3.27,5.37-7,5-11.69-.59-7.49-3.8-13.65-10.2-17.8-7.7-5-16-5.93-24.89-3.62a43.58,43.58,0,0,0-10.62,4.27A48.91,48.91,0,0,0,411,136c-3.15,3.74-6.09,7.66-9.37,11.27a32.27,32.27,0,0,1-12.73,8.65,19.79,19.79,0,0,1-15.51-.4,23.1,23.1,0,0,1-7.94-6,37.56,37.56,0,0,1-6.67-11.31c-.4-1-.91-1.08-1.69-.25-2.41,2.54-4.75,5.16-7.24,7.63-3.17,3.14-6.6,6-10.78,7.72a11.82,11.82,0,0,1-10.38-.61c-5.69-3.05-7.66-8.27-8.31-14.25-.11-1,0-2-.09-2.94a5.19,5.19,0,0,0-.35-1.1,4.46,4.46,0,0,0-.92.65c-3,3.62-5.93,7.37-9.09,10.88-3.32,3.7-6.86,7.2-10.35,10.74a3,3,0,0,0-.77,2.79c.6,4.5,1.27,9,1.72,13.49a93.36,93.36,0,0,1-.49,24,98.5,98.5,0,0,1-2.93,11.35c-.77,2.66-1.65,5.3-2.64,7.88a37.65,37.65,0,0,1-2.64,5.51c-2.09,3.54-4.18,7.09-6.55,10.45a34.86,34.86,0,0,1-13.64,12,43.34,43.34,0,0,1-7.73,2.95c-1.93.48-4.06.15-6.1.27a15.81,15.81,0,0,1-11-3.6,16.1,16.1,0,0,1-5.27-7.47c-1.95-5.33-1.43-10.55-.11-15.89a62.53,62.53,0,0,1,5.16-13.18,2.9,2.9,0,0,1,2.95-1.9c1.22.07,2.45-.11,3.68-.14a11.27,11.27,0,0,1,1.51.2c-1,1.75-1.88,3.27-2.67,4.87a54.62,54.62,0,0,0-4.73,12.14,25.51,25.51,0,0,0-.72,8.51c.4,3.5,1.73,6.6,4.82,8.53a13.19,13.19,0,0,0,9.63,1.87c9-1.67,15.41-6.91,20.25-14.36a82.33,82.33,0,0,0,5.18-8.57,103.39,103.39,0,0,0,4.7-11.37c1.14-3.26,1.87-6.67,2.72-10a14,14,0,0,0,.5-3.26c.05-6.46.14-12.92,0-19.37a90.09,90.09,0,0,0-1-9.37c-.05-.39-.32-1-.62-1.05a1.43,1.43,0,0,0-1.15.45c-6,5.73-12.07,11.45-18,17.25-2,1.9-3.73,4-5.53,6a3.12,3.12,0,0,1-2.49,1.27c-1.59,0-3.18.21-4.77.31-.43,0-.88,0-1.75,0a10.24,10.24,0,0,1,1-1.86c5-5.34,9.85-10.78,15-15.94s10.48-9.95,15.77-14.86a2.67,2.67,0,0,0,.83-2.92c-.57-2.59-.9-5.23-1.38-7.84-.19-1-.51-2-.78-3l-.54-.25c-.58.7-1.12,1.45-1.75,2.12a44.45,44.45,0,0,1-13.56,9.47,105.4,105.4,0,0,1-11.87,5.16c-4.82,1.55-9.76,1.66-14.49-.89-2.95-1.58-5.1-4-7.37-6.34a58.32,58.32,0,0,0-6.08-5.8c-2.94-2.26-6.35-1.93-9.72-.94-5.73,1.68-10.54,5.09-15.51,8.22a119.8,119.8,0,0,1-15.94,8.76A115.83,115.83,0,0,1,181,166.87c-5,1.55-10.27,2.6-15.58,1.76-5.55-.87-10.23-3.26-13.09-8.43-.89-1.62-1.23-1.58-2.93-.92-2.58,1-5.22,1.86-7.85,2.72a76.12,76.12,0,0,1-14.72,3,39.81,39.81,0,0,1-14.71-.9c-3.11-.79-6.26-1.54-9.28-2.6a46.36,46.36,0,0,1-13-7,98.89,98.89,0,0,1-12-11.17,1.54,1.54,0,0,0-2-.41c-7.11,3.05-14.49,4.83-22.27,4.34a31.08,31.08,0,0,1-14.23-4.43A39.84,39.84,0,0,1,25.7,129.28c-2.52-4.14-4.54-8.53-4.41-13.54.15-5.68,3.93-9.42,9.63-9.63,4-.16,7.81,1.1,11.49,2.61a89.76,89.76,0,0,1,15.85,8.92,116.82,116.82,0,0,1,16.53,13.58c.87.85,1.76,1.7,2.6,2.59a1.56,1.56,0,0,0,2.25.4c3.43-2.26,7-4.31,10.27-6.82a128.15,128.15,0,0,0,11-9.65,110.91,110.91,0,0,0,8.83-9.81c3.27-4.06,6.39-8.26,9.32-12.57,2.47-3.63,4.58-7.51,6.83-11.29.87-1.47,1.68-3,2.52-4.47.64-1.16.44-1.58-.77-1.74a73.44,73.44,0,0,1-15.19-3.65,66.23,66.23,0,0,1-15-7.53c-7.57-5.18-15.1-10.41-22.71-15.53-4.56-3.07-9.22-6.08-14.55-7.65-4.66-1.36-9.36-1.47-13.74,1.2a2.78,2.78,0,0,1-2.61.42A11.58,11.58,0,0,0,40.54,45c-1.32,0-1.64-.48-1.09-1.7a9.08,9.08,0,0,1,4-4.15c5.93-3.33,12.24-3.31,18.55-1.6a40.63,40.63,0,0,1,11,5.18c3.78,2.4,7.5,4.91,11.21,7.42,4.28,2.9,8.47,6,12.8,8.78,3.61,2.36,7.27,4.67,11.08,6.69a51.32,51.32,0,0,0,13.34,4.72c2.47.53,5,1,7.44,1.47.48.09,1,.12,1.46.19A2.09,2.09,0,0,0,133,70.52c1.54-3.81,3.28-7.54,4.81-11.35,1.82-4.54,3.53-9.12,5.22-13.7,1-2.79,1.86-5.65,2.94-8.42,2.81-7.22,6.38-14,11.58-19.84a27.55,27.55,0,0,1,9.91-7.43c2.46-1,5-2.09,7.72-2.1a19.37,19.37,0,0,1,11.06,3.71,22.69,22.69,0,0,1,8.59,11.86,27.7,27.7,0,0,1,.53,16.51,38.71,38.71,0,0,1-9.57,16.82,53.56,53.56,0,0,1-11.49,9.26c-2.86,1.71-5.9,3.13-8.87,4.65A72.53,72.53,0,0,1,150,75.91a115.23,115.23,0,0,1-12.17,2,2.79,2.79,0,0,0-2.36,1.57c-3.17,5.65-6.24,11.36-9.61,16.88A139.38,139.38,0,0,1,109.44,118,102.52,102.52,0,0,1,93.26,132.7c-3,2.12-6.06,4.11-9.15,6.08-1,.61-.89,1.06-.21,1.78,4.8,5.12,9.9,9.88,16.24,13a53.79,53.79,0,0,0,14.11,4.67,45.46,45.46,0,0,0,13.06.43A56.88,56.88,0,0,0,139.85,156c2.82-.94,5.62-2,8.41-3a1.87,1.87,0,0,0,1.47-2,32.93,32.93,0,0,1,3-14.39,36.36,36.36,0,0,1,20.16-20.06,27.38,27.38,0,0,1,9.28-2c4.1-.18,8.07.43,11,3.8a7.87,7.87,0,0,1,1.83,5.92,14.29,14.29,0,0,1-3.58,8.15c-4,5.08-9.18,8.89-14.63,12.29-4.8,3-9.72,5.8-14.61,8.65a43.57,43.57,0,0,1-4,2c-1,.44-.94,1.08-.47,1.78a10.91,10.91,0,0,0,7.53,5,28.45,28.45,0,0,0,14.23-1.47,134.56,134.56,0,0,0,13-5.27c4.1-2,8-4.41,11.92-6.7,4.48-2.59,8.8-5.47,13.41-7.79a24,24,0,0,1,10.58-2.74A16.21,16.21,0,0,1,240,143c2.64,2.48,5,5.24,7.56,7.82,3.43,3.47,7.69,4,12,2.6a75.52,75.52,0,0,0,16.23-7.61,36.19,36.19,0,0,0,11.78-11.54,2.85,2.85,0,0,0,.2-1.86c-1.47-8.41-3.11-16.78-4.45-25.21-1.73-10.86-3.29-21.76-3.2-32.78a119.57,119.57,0,0,1,1.41-17.32A32.85,32.85,0,0,1,287,43a14.13,14.13,0,0,1,7.18-5.65c4.57-1.47,8.45,0,11.83,3.07s5.34,7.07,6.8,11.41c2.16,6.4,2.54,13,2.19,19.6a59.12,59.12,0,0,1-2.11,13.9c-1.42,4.68-2.62,9.42-4.1,14.08-1.81,5.71-3.65,11.42-5.79,17-2,5.28-4.27,10.49-6.79,15.55a8.86,8.86,0,0,0-1,6.68c.86,3.31,1.26,6.74,1.88,10.11.05.3.28.82.37.81a1.82,1.82,0,0,0,1.05-.44c3.92-4.27,8-8.42,11.65-12.89s7.17-9.49,10.7-14.28a47.74,47.74,0,0,0,3.39-5.08,18.16,18.16,0,0,0,1.93-12.58C325.28,100,324,95.81,323,91.56c-.65-2.75-1-5.54.25-8.27a7.86,7.86,0,0,1,5.46-4.37A17.3,17.3,0,0,1,344.52,82a6.48,6.48,0,0,1,1.58,8.13q-4.52,8.92-9.32,17.72c-1.85,3.4-4,6.62-5.84,10a26.47,26.47,0,0,0-2.22,5.93c-1,3.79-2.1,7.55-2.11,11.53,0,3,.22,5.88,1.73,8.53a7.54,7.54,0,0,0,6.49,4.14c1.9.09,3.28-1.16,4.72-2.1,4.94-3.22,8.87-7.55,12.72-11.95.93-1.07,1.8-2.21,2.75-3.27a3,3,0,0,0,.78-2.58c-.5-3.8-1.09-7.61-1.39-11.43a92.81,92.81,0,0,1,.82-20c.35-2.59.6-5.2,1.14-7.75.94-4.47,2-8.91,3.14-13.34.82-3.19,1.74-6.37,2.76-9.51a66.26,66.26,0,0,1,2.55-6.61c1.24-2.74,2.53-5.48,4-8.11a51.44,51.44,0,0,1,10.75-14A23.73,23.73,0,0,1,389,31.91a10.67,10.67,0,0,1,12.76,5.42,15.54,15.54,0,0,1,1.76,6.57,37.81,37.81,0,0,1-2.15,15.54c-1.49,4.05-3,8.1-4.66,12.07-1.53,3.59-3.29,7.09-5,10.6-2.15,4.39-4.28,8.79-6.56,13.11q-3.11,5.9-6.53,11.61c-2.58,4.33-5.27,8.62-8,12.84-2.27,3.48-4.74,6.83-7,10.29a2.64,2.64,0,0,0-.32,1.92,34.82,34.82,0,0,0,6.52,13c5.42,6.55,12.83,7.85,20.17,3.72,5.73-3.23,9.8-8.11,13.63-13.31a51.93,51.93,0,0,1,10.57-11,72.57,72.57,0,0,1,9.55-6.11,64.15,64.15,0,0,1,8.63-3.33,34.32,34.32,0,0,1,15.86-1.4c8.64,1.1,16.11,4.65,21.7,11.54a24.09,24.09,0,0,1,4.68,8.65,53.24,53.24,0,0,1,1.29,7.53C475.85,143.45,475.38,148.62,474.55,150.41ZM175.48,14.13l-2.3.24a7.75,7.75,0,0,0-.83.21c-4.74,1.3-8.23,4.39-11.29,8-4.24,5.05-7,10.94-9.45,17-1,2.61-1.8,5.32-2.76,8-1.51,4.17-3,8.35-4.64,12.48-1.32,3.37-2.83,6.67-4.24,10a7.75,7.75,0,0,0-.27,1.08,4,4,0,0,0,1.17.17c1.24-.21,2.47-.54,3.71-.73a70.83,70.83,0,0,0,15.6-4.53,62.81,62.81,0,0,0,15.77-9c6.13-4.92,11.07-10.65,13.17-18.47,1.65-6.14,1.21-12-2.15-17.44C184.36,16.92,180.65,14.33,175.48,14.13ZM361.37,121.58h.44c1.18-1.69,2.46-3.33,3.54-5.09,3.54-5.76,7.08-11.51,10.46-17.37,2.5-4.33,4.8-8.78,7.09-13.24,1.81-3.51,3.48-7.08,5.16-10.66,1.61-3.42,3.3-6.82,4.7-10.34a104.33,104.33,0,0,0,3.76-11c1.08-4,1.65-8.11.37-12.21a5.2,5.2,0,0,0-3.69-3.9c-1.55-.41-2.9.23-4.25.79a23.1,23.1,0,0,0-8.7,6.95,55.94,55.94,0,0,0-8.84,14.57c-1.33,3.19-2.59,6.42-3.72,9.69-.94,2.73-1.75,5.52-2.44,8.33-1.11,4.55-2.19,9.12-3.07,13.73-.61,3.2-.91,6.47-1.25,9.71a87.47,87.47,0,0,0,0,18.23A11.12,11.12,0,0,0,361.37,121.58ZM286.12,73.9c.26,4.15.34,7.63.71,11.08q1.11,10.15,2.49,20.29c.53,4,1.25,8,1.91,12q.47,2.77,1.07,5.53c.07.34.43.62.65.94.23-.19.57-.33.67-.57,1.66-4.12,3.42-8.21,4.91-12.39,1.65-4.6,3.12-9.26,4.54-13.94s2.64-9.33,4-14c1.64-5.76,1.87-11.67,1.76-17.61a35.22,35.22,0,0,0-3.61-15.58,13.28,13.28,0,0,0-5.35-6,4.08,4.08,0,0,0-4.54,0,15.62,15.62,0,0,0-3.95,4.08,32.64,32.64,0,0,0-4.19,12.94C286.55,65.25,286.42,69.92,286.12,73.9ZM56.36,141a36.77,36.77,0,0,0,13.39-2.5c.71-.3,1.39-.67,2.09-1a13.23,13.23,0,0,0-1.47-1.83c-4.08-3.56-8-7.32-12.34-10.56a86.09,86.09,0,0,0-17.71-10.51c-3-1.25-5.94-2.3-9.21-2.17-2.51.11-3.73,1.16-3.49,3.67a21.76,21.76,0,0,0,1.59,6.47,31.43,31.43,0,0,0,7.44,10.35C42.2,138.17,48.59,141.26,56.36,141Zm126.73-20.33a28.92,28.92,0,0,0-4.22.48,29.71,29.71,0,0,0-12.84,7,33.22,33.22,0,0,0-10,19.63,4.4,4.4,0,0,0,.17,1.27,4.21,4.21,0,0,0,1.26-.23c4.14-2.27,8.35-4.44,12.37-6.91a84.57,84.57,0,0,0,13.35-9.63,22.45,22.45,0,0,0,5.24-6.55c1-2.07.56-3.51-1.56-4.34A18.17,18.17,0,0,0,183.09,120.69ZM336.44,84.88a19.2,19.2,0,0,0-3-.38c-.25,0-.49,0-.74,0-3.92.22-4.58,1.71-3.81,4.91q.6,2.45,1.23,4.86c.6,2.33,1.2,4.66,1.85,7a1.07,1.07,0,0,0,.63.82c.31,0,.56-.42.73-.69.44-.74.82-1.5,1.2-2.27,1.85-3.66,3.68-7.34,5.57-11,.56-1.09.15-1.64-.79-2.14A19.86,19.86,0,0,0,336.44,84.88Z" transform="translate(-14.18 -4.68)"/><path class="cls-1" d="M190.76,195.59c4.7,0,9.4.09,14.1,0,16.3-.38,32.61-.72,48.9-1.29,10.66-.37,27.33-1.89,38-2.46.94,0,1.87-.16,2.8-.28s1.23.34,1.14,1a36.91,36.91,0,0,1-.88,4.55c-.08.33-.79.67-1.24.7-5.26.32-16.55,1.44-21.82,1.67-17.27.74-34.54,1.58-51.81,2.11-11.85.36-23.7.32-35.56.34-8.78,0-17.57,0-26.35-.29-12.26-.4-24.51-1-36.75-1.65-6.48-.36-13-1-19.42-1.65s-13-1.51-19.43-2.49c-5.2-.79-10.35-1.89-15.52-2.89-3.28-.63-6.58-1.2-9.81-2-3.79-1-7.52-2.19-11.24-3.42-2.7-.89-5.39-1.87-8-3-6-2.65-11.74-5.75-16.15-10.77a16.34,16.34,0,0,1-4.53-10.53c-.07-2.73,1.15-4.82,2.65-6.79a14.19,14.19,0,0,1,14.47-5.66,24.71,24.71,0,0,1,8.76,3.32,1,1,0,0,1,.36,1.56c-.81,1.17-1.59,2.38-2.51,3.46a1.69,1.69,0,0,1-1.45.14c-2-.68-4-1.6-6.06-2.19-4-1.15-7.63,1-9.56,4.61-.8,1.49-.36,3,.29,4.49a18.72,18.72,0,0,0,8.07,8.3,69.45,69.45,0,0,0,10.27,5.07c5.47,2.08,11.07,3.87,16.69,5.52,3.2,1,6.53,1.4,9.81,2.05s6.71,1.4,10.1,1.91q8.36,1.26,16.75,2.24c6.77.78,13.55,1.52,20.34,2.07,7.33.58,14.68,1.1,22,1.33,14.78.47,29.57.74,44.36,1.07,2.74.07,5.48,0,8.21,0Z" transform="translate(-14.18 -4.68)"/></svg>