<?xml version="1.0" standalone="no"?>
<!DOCTYPE svg PUBLIC "-//W3C//DTD SVG 20010904//EN"
 "http://www.w3.org/TR/2001/REC-SVG-20010904/DTD/svg10.dtd">
<svg version="1.0" xmlns="http://www.w3.org/2000/svg"
 width="1019.000000pt" height="1019.000000pt" viewBox="0 0 1019.000000 1019.000000"
 preserveAspectRatio="xMidYMid meet">
<metadata>
Created by potrace 1.11, written by Peter Selinger 2001-2013
</metadata>
<g transform="translate(0.000000,1019.000000) scale(0.100000,-0.100000)"
fill="#000000" stroke="none">
<path d="M4715 10170 c-991 -80 -1904 -426 -2690 -1019 -358 -270 -716 -628
-986 -986 -604 -800 -949 -1724 -1020 -2729 -15 -215 -7 -668 16 -876 158
-1466 920 -2769 2118 -3621 1034 -736 2307 -1055 3579 -898 1139 140 2195 664
3003 1490 1251 1279 1735 3088 1293 4834 -283 1116 -969 2133 -1905 2822 -730
539 -1575 867 -2488 968 -175 20 -747 28 -920 15z m2585 -1749 l0 -820 -752
-4 c-833 -4 -813 -3 -1027 -72 -424 -137 -756 -465 -906 -896 -65 -187 -75
-280 -75 -699 l0 -368 90 44 c252 124 570 223 860 268 161 26 325 36 573 36
l237 0 0 -819 0 -819 -277 -5 c-232 -4 -292 -8 -363 -25 -128 -30 -204 -57
-325 -117 -388 -188 -658 -532 -768 -975 -21 -83 -21 -108 -24 -1142 l-4
-1058 -819 0 -820 0 0 2688 c0 1763 4 2727 10 2802 124 1384 1148 2503 2516
2749 240 43 324 46 1192 49 l682 2 0 -819z"/>
</g>
</svg>
