<?xml version="1.0" standalone="no"?>
<!DOCTYPE svg PUBLIC "-//W3C//DTD SVG 20010904//EN"
 "http://www.w3.org/TR/2001/REC-SVG-20010904/DTD/svg10.dtd">
<svg version="1.0" xmlns="http://www.w3.org/2000/svg"
 width="740.000000pt" height="740.000000pt" viewBox="0 0 740.000000 740.000000"
 preserveAspectRatio="xMidYMid meet">
<metadata>
Created by potrace 1.11, written by Peter Selinger 2001-2013
</metadata>
<g transform="translate(0.000000,740.000000) scale(0.100000,-0.100000)"
fill="#000000" stroke="none">
<path d="M1528 6852 c-14 -3 -37 -70 -54 -157 -2 -11 -12 -52 -23 -92 -22 -85
-29 -79 119 -99 25 -3 48 -8 51 -10 3 -2 19 -5 35 -8 33 -6 119 -24 149 -31
52 -12 178 -56 230 -79 162 -75 244 -197 230 -343 -3 -32 -7 -65 -10 -73 -2
-8 -6 -31 -9 -50 -3 -19 -30 -136 -60 -260 -31 -124 -57 -234 -59 -245 -2 -11
-7 -31 -10 -45 -7 -26 -67 -274 -72 -300 -2 -8 -11 -46 -20 -85 -9 -38 -18
-77 -20 -85 -2 -8 -25 -100 -50 -205 -26 -104 -49 -200 -50 -212 -2 -11 -6
-30 -9 -41 -4 -11 -9 -29 -11 -39 -7 -35 -86 -364 -90 -376 -2 -6 -7 -23 -9
-37 -6 -30 -5 -28 -50 -210 -67 -277 -88 -365 -93 -395 -3 -16 -9 -38 -14 -47
-5 -10 -7 -18 -5 -18 3 0 2 -10 -3 -23 -5 -13 -12 -39 -15 -58 -3 -19 -14 -68
-25 -109 -11 -41 -22 -86 -24 -100 -3 -14 -10 -45 -17 -70 -7 -25 -13 -49 -14
-55 -2 -5 -8 -37 -15 -70 -7 -33 -18 -80 -25 -105 -8 -25 -18 -67 -25 -95 -6
-27 -25 -108 -42 -180 -17 -71 -32 -137 -34 -146 -2 -8 -10 -44 -19 -80 -9
-35 -18 -73 -21 -84 -2 -11 -14 -58 -25 -105 -12 -47 -23 -92 -25 -100 -1 -8
-15 -64 -29 -125 -15 -60 -29 -120 -31 -132 -9 -44 -13 -58 -25 -103 -7 -25
-14 -53 -16 -64 -52 -271 -160 -431 -347 -516 -61 -28 -145 -55 -159 -52 -4 1
-18 -2 -31 -7 -13 -5 -48 -12 -78 -16 -30 -3 -61 -8 -69 -10 -8 -2 -35 -7 -60
-10 -25 -3 -61 -7 -80 -10 -79 -10 -129 -15 -205 -20 -43 -3 -80 -7 -82 -8 -1
-2 -20 -76 -41 -165 l-39 -162 1767 0 c1565 0 1769 2 1774 15 4 12 46 184 71
293 4 18 1 22 -17 23 -13 0 -30 2 -38 3 -8 2 -43 6 -77 10 -35 4 -68 8 -75 11
-7 2 -31 6 -53 9 -82 12 -112 18 -204 42 -179 47 -270 107 -319 214 -46 98
-39 186 42 520 19 80 37 157 40 170 8 40 13 59 45 185 16 66 32 131 35 145 2
14 30 131 61 260 32 129 61 255 66 279 5 23 14 62 20 84 6 23 13 49 14 57 3
15 50 209 101 420 14 58 27 112 29 120 20 92 37 157 43 167 6 10 100 13 408
13 219 0 415 -2 434 -5 272 -43 372 -85 506 -216 57 -55 101 -131 132 -229 27
-83 58 -227 67 -310 4 -36 9 -74 11 -85 2 -11 4 -86 5 -167 0 -82 3 -149 7
-149 4 -1 82 -2 175 -3 141 -1 168 1 172 14 2 8 9 38 15 65 7 28 13 57 15 65
2 8 23 94 45 190 23 96 44 182 46 190 2 8 42 175 89 370 72 298 125 521 140
590 2 8 22 92 45 185 23 94 44 181 46 195 3 14 20 86 38 160 19 74 57 234 86
355 28 121 55 232 60 247 5 15 6 29 2 32 -4 2 -81 4 -172 4 l-166 0 -61 -126
c-73 -150 -102 -201 -184 -324 -177 -264 -311 -394 -529 -511 -64 -34 -217
-92 -267 -102 -15 -2 -49 -9 -77 -14 -69 -14 -111 -19 -198 -27 -83 -7 -786
-10 -793 -3 -2 3 0 21 5 40 6 18 33 131 61 249 28 118 62 262 76 319 13 57 26
111 28 120 2 9 24 99 49 201 25 102 47 196 49 210 3 14 19 79 35 145 31 124
70 289 76 321 2 11 18 74 35 141 17 67 32 133 35 145 2 13 11 50 19 83 9 33
18 71 21 85 3 14 9 40 15 58 5 18 10 35 10 37 0 3 18 84 41 180 l42 174 661
-4 c364 -2 696 -6 737 -9 41 -3 111 -8 155 -11 191 -13 287 -28 349 -53 173
-69 366 -295 516 -606 62 -128 116 -268 136 -351 25 -105 34 -147 40 -180 3
-22 8 -47 9 -55 2 -8 4 -20 4 -26 1 -7 58 -11 180 -11 l179 0 42 176 c23 97
71 295 106 441 35 146 77 321 94 390 16 69 50 211 76 315 25 105 47 197 49
205 2 8 11 46 20 83 10 37 15 70 12 73 -6 6 -5830 12 -5859 6z"/>
</g>
</svg>
