<?xml version="1.0" standalone="no"?>
<!DOCTYPE svg PUBLIC "-//W3C//DTD SVG 20010904//EN"
 "http://www.w3.org/TR/2001/REC-SVG-20010904/DTD/svg10.dtd">
<svg version="1.0" xmlns="http://www.w3.org/2000/svg"
 width="799.000000pt" height="799.000000pt" viewBox="0 0 799.000000 799.000000"
 preserveAspectRatio="xMidYMid meet">
<metadata>
Created by potrace 1.11, written by Peter Selinger 2001-2013
</metadata>
<g transform="translate(0.000000,799.000000) scale(0.100000,-0.100000)"
fill="#000000" stroke="none">
<path d="M5828 7985 c-2 -1 -37 -5 -79 -8 -233 -18 -527 -124 -729 -262 -226
-154 -473 -386 -636 -595 -81 -105 -177 -248 -239 -355 -86 -148 -208 -402
-246 -508 l-13 -38 -136 7 c-208 10 -434 6 -542 -11 -13 -2 -44 -6 -69 -9
-142 -20 -325 -70 -439 -122 -350 -159 -549 -340 -637 -582 -25 -67 -29 -82
-38 -137 -3 -16 -8 -42 -11 -57 -11 -56 -6 -205 11 -267 46 -179 168 -301 299
-301 72 0 95 9 102 37 9 32 -19 61 -100 103 -197 102 -237 289 -117 546 181
386 635 608 1227 598 140 -2 352 -19 362 -29 2 -1 -10 -45 -27 -96 -61 -188
-145 -525 -187 -744 -7 -38 -16 -81 -19 -95 -7 -35 -33 -178 -40 -220 -3 -19
-7 -46 -10 -60 -3 -14 -7 -38 -9 -55 -9 -54 -35 -219 -40 -255 -3 -19 -12 -78
-20 -130 -9 -52 -17 -110 -18 -129 -2 -31 -11 -40 -107 -103 -181 -122 -399
-294 -556 -438 -73 -68 -335 -330 -390 -391 -503 -556 -824 -1161 -935 -1758
-105 -569 -22 -962 264 -1247 95 -94 146 -130 258 -184 129 -61 229 -83 383
-84 145 -1 202 5 318 35 313 80 575 278 773 586 57 87 152 272 185 356 11 29
24 61 29 72 38 83 124 371 174 582 45 194 119 562 131 652 1 15 10 65 19 111
8 47 18 103 21 125 3 23 7 50 9 61 2 12 7 45 11 74 4 29 9 62 11 74 2 12 6 38
9 60 3 21 7 50 9 65 3 14 8 50 11 80 4 30 8 61 10 70 1 9 6 41 9 72 4 31 8 65
10 75 2 11 7 46 10 79 4 33 9 71 11 85 2 14 6 45 9 70 4 43 12 111 21 175 5
36 23 191 31 260 3 28 7 61 9 75 2 14 13 106 25 205 30 260 26 248 85 263 44
11 71 17 173 37 13 2 31 6 40 9 9 3 40 8 67 11 28 4 61 8 75 10 148 20 390 24
585 9 390 -28 520 20 399 149 -72 76 -130 106 -257 133 -67 14 -281 20 -357 9
-19 -2 -55 -7 -80 -10 -48 -6 -146 -22 -195 -31 -81 -15 -410 -101 -463 -122
-14 -5 -13 32 3 138 2 14 6 48 10 75 3 28 8 61 10 75 4 30 15 106 20 140 2 14
11 70 20 125 9 55 19 114 21 130 3 17 7 37 9 45 2 8 6 31 9 50 22 145 121 540
139 552 6 4 15 4 19 2 10 -6 302 -6 346 0 18 3 52 8 75 11 229 31 553 148 819
296 386 214 654 477 765 749 47 116 58 173 58 310 -1 99 -6 142 -23 204 -33
114 -86 216 -150 287 -58 63 -191 159 -221 159 -9 0 -21 4 -26 9 -10 8 -72 26
-125 37 -40 7 -218 23 -222 19z m304 -544 c291 -139 266 -406 -68 -746 -190
-193 -342 -300 -557 -395 -65 -29 -215 -77 -261 -84 -21 -4 -41 -8 -45 -10 -3
-2 -28 -7 -56 -10 -27 -4 -59 -9 -70 -11 -84 -17 -475 -30 -475 -16 0 23 142
331 180 391 5 8 32 53 60 99 113 187 321 426 483 557 39 33 74 61 77 64 3 3
37 27 75 52 252 165 467 200 657 109z m-2746 -3528 c-3 -16 -8 -45 -11 -65 -6
-46 -14 -104 -19 -138 -2 -14 -7 -46 -10 -71 -4 -25 -9 -57 -11 -70 -7 -47
-49 -328 -79 -544 -17 -117 -28 -194 -32 -217 -2 -15 -15 -99 -29 -185 -14
-87 -34 -207 -45 -268 -11 -60 -22 -123 -25 -140 -59 -323 -148 -683 -216
-870 -163 -450 -469 -703 -757 -625 -170 47 -278 202 -328 475 -13 70 -10 385
5 460 96 501 356 979 872 1610 181 221 390 441 529 557 66 56 150 118 157 118
3 0 2 -12 -1 -27z"/>
</g>
</svg>
