<?xml version="1.0" encoding="utf-8"?>
<!-- Generator: Adobe Illustrator 21.0.2, SVG Export Plug-In . SVG Version: 6.00 Build 0)  -->
<svg version="1.1" id="Calque_1" xmlns="http://www.w3.org/2000/svg" xmlns:xlink="http://www.w3.org/1999/xlink" x="0px" y="0px"
	 viewBox="0 0 493 255" style="enable-background:new 0 0 493 255;" xml:space="preserve">
<style type="text/css">
	.st0{fill:#FFFFFF;}
</style>
<g>
	<path class="st0" d="M11.3,214.1c11.7-40.9,23-82.1,37-122.2c10.2-29.4,23.6-68.6,54.1-82.5c8.5-3.9,20.3-2.5,19.2,9.9
		c-0.8,8.8-8.7,17-15.4,21.9C81.1,59.8,47.7,55.6,26,80c-3.9,4.4-10,12.3-8.5,18.9c1,4.2,11.2,7.5,10.2,8.8
		c-4.1,5.6-13.7-4.4-14.5-8.2c-1.4-6.8,3.3-14.3,7.3-19.2c11.6-14.3,27.4-23.6,44.8-28.9C80.8,46.7,97.7,43.9,108,30
		c1.1-1.5,3.1-3.1,2.9-5.3c-0.7-7.8-11.6,4.4-13.3,6.7c-4.7,6.3-7.1,13.2-9.9,20.4C70,97.1,53,142.9,42,190.4
		c34.1-18.7,40.1,32,65.3,41.5c15,5.6,26.8-9.6,24-23.2c-0.6-3.1-3.9-10.8,2.6-5.3c5,4.2,3.6,15.2,1.2,20.1
		c-7.3,14.9-25.3,20.9-39.3,11.9c-13.3-8.5-19.2-23.8-30.5-34.1c-5.6-5-10.4-6.9-17.2-3.2c-6.8,3.7-9.2,14.5-15.7,17.3
		C27.3,217.5,17,214.6,11.3,214.1z"/>
	<path class="st0" d="M157.3,128.5c-4.1-2.8-21.8,30-24.4,33.5c-8.4,11.4-23,32.9-39.8,30.6c-10.9-1.5-9.3-22.8-5.5-30.8
		c3.1-6.6,8.6-5,15.3-7.5c6.9-2.6,12.3-7.3,16.5-13.4c11.5-16.6,2.8-34.2-18.1-28.3C85.4,117,76.8,134.6,72,149
		c-4.6,13.8-8.5,32.2,2.4,44.2c7.2,7.9,21,9.2,30.6,4.9c15.8-7.1,28.1-25.6,37-39.9C143.1,156.2,160.4,130.7,157.3,128.5z
		 M92.3,148.2c2.1-5,23.2-40.8,27-22.9c2,9.5-8.5,19.8-16.1,23.7C101,150.2,89.2,155.9,92.3,148.2z"/>
	<path class="st0" d="M244.2,100.7c-9.9-4.3-5.3-16.4,0-22.6c8.8-10.3,23.5-12.9,36.4-12.3c15.8,0.8,31.5,6.2,47.3,2.5
		c19.7-4.7,53.9-23.7,44-49.1c-7.3-18.8-32.7-13.7-45.7-4.9c-41,27.6-44.7,80.7-51.4,125.4c-2.6,17.3-4.7,34.8-8.6,51.9
		c-2.1,9.3-4.6,20.2-10.7,27.8c-8.5,10.6-21.9,10.8-25.8-3.3c-7.3-26.4,15.9-55.8,31.9-74.1c17.3-19.8,41.2-29.9,67.3-28.7
		c2.8,0.1,23.6,2.9,13.7-5.5c-7.6-6.4-27-1.7-34.9,0.5c-24.8,7-44,21.1-61.4,39.7c-16.9,18.2-30.6,42.8-30.5,68.3
		c0.1,19.1,14.3,34.4,34.1,31.5c29.3-4.3,37.1-36.2,41.9-60.7c4.6-23.4,6.9-47.2,9.8-70.8c3.4-26.8,6.6-57.8,25-78.9
		c7.1-8.2,20.7-20.6,32.7-14.9c16.1,7.6-3.1,25.1-10.9,30.4c-27.8,19-61.7-1.5-91.7,10.3c-9.6,3.8-18.7,10-21.5,20.4
		c-1.6,6.1-1.6,13.8,3.2,18.5C243.6,107.2,251.6,104.1,244.2,100.7z"/>
	<path class="st0" d="M360.1,116.1c-6.8,12.3-12.4,25.4-13.8,39.5c-0.6,6.2-1.8,15,1.8,20.6c7.8,12,22.2,4.5,30.3-2.2
		c15.5-12.8,26.9-29.9,40.2-44.9c12.7-14.5,24.2-29.5,34.5-45.8c9.5-15.1,18.3-30.7,25.2-47.2c3.7-8.9,7.9-26-7.2-23.4
		c-17.2,2.9-31.3,28.5-39.3,41.5c-9.8,16-17.7,33.3-23,51.3c-5.4,18.4-11.1,37.8-8.6,57.2c2.9,22.4,22.1,28.2,38.7,14.6
		c1.7-1.4,8.3-8.4,14.7-18c8.7-13.1,17-29.6,12.8-30.4c-2.7-0.6-7.3,9-12.6,18.3c-5.4,9.3-11.6,18.3-13.4,20.5
		c-3.8,4.6-11.8,13.3-18.3,9.3c-6.9-4.2-5.1-18.4-4.2-24.8c3-21.4,10.1-42.4,17.5-62.6c6.4-17.6,14.3-35,24.2-50.9
		c1.9-3,8.6-15,12.8-13.5c5.3,1.9-1.1,12.8-2.5,16.1c-8.8,19.6-19.5,38-31.3,55.9c-13.4,20.2-28.9,37.9-44.7,56.2
		c-4.7,5.4-14.5,18.3-21.6,19.5c-10,1.7-6.6-17.2-5.4-22.9c2.1-9.4,6.7-18,9.3-27.2C378.8,112.5,365.9,107.2,360.1,116.1z"/>
	<circle class="st0" cx="375.7" cy="94" r="9.2"/>
</g>
</svg>
